HIERARCHY
ROOT Hips
{
	OFFSET -3.958830 18.904000 13.208200
	CHANNELS 6 Xposition Yposition Zposition Zrotation Yrotation Xrotation 
	JOINT LHipJoint
	{
		OFFSET 0.000000 0.000000 0.000000
		CHANNELS 3 Zrotation Yrotation Xrotation
		JOINT LeftUpLeg
		{
			OFFSET 1.800000 -1.400000 0.085000
			CHANNELS 3 Zrotation Yrotation Xrotation
			JOINT LeftLeg
			{
				OFFSET 2.215000 -6.000000 0.000000
				CHANNELS 3 Zrotation Yrotation Xrotation
				JOINT LeftFoot
				{
					OFFSET 2.500000 -6.900000 0.000000
					CHANNELS 3 Zrotation Yrotation Xrotation
					JOINT LeftToeBase
					{
						OFFSET 0.200000 -0.500000 1.950000
						CHANNELS 3 Zrotation Yrotation Xrotation
						End Site
						{
							OFFSET 0.000000 0.000000 0.000000
						}
					}
				}
			}
		}
	}
	JOINT RHipJoint
	{
		OFFSET 0.000000 0.000000 0.000000
		CHANNELS 3 Zrotation Yrotation Xrotation
		JOINT RightUpLeg
		{
			OFFSET -1.800000 -1.400000 0.085000
			CHANNELS 3 Zrotation Yrotation Xrotation
			JOINT RightLeg
			{
				OFFSET -2.215000 -6.000000 0.000000
				CHANNELS 3 Zrotation Yrotation Xrotation
				JOINT RightFoot
				{
					OFFSET -2.500000 -6.900000 0.000000
					CHANNELS 3 Zrotation Yrotation Xrotation
					JOINT RightToeBase
					{
						OFFSET -0.200000 -0.500000 1.950000
						CHANNELS 3 Zrotation Yrotation Xrotation
						End Site
						{
							OFFSET 0.000000 0.000000 0.000000
						}
					}
				}
			}
		}
	}
	JOINT LowerBack
	{
		OFFSET 0.000000 0.000000 0.000000
		CHANNELS 3 Zrotation Yrotation Xrotation
		JOINT Spine
		{
			OFFSET -0.087000 1.940000 -0.288900
			CHANNELS 3 Zrotation Yrotation Xrotation
			JOINT Spine1
			{
				OFFSET 0.000000 1.950000 0.060000
				CHANNELS 3 Zrotation Yrotation Xrotation
				JOINT Neck
				{
					OFFSET 0.000000 0.000000 0.000000
					CHANNELS 3 Zrotation Yrotation Xrotation
					JOINT Neck1
					{
						OFFSET 0.000000 1.600000 0.340000
						CHANNELS 3 Zrotation Yrotation Xrotation
						JOINT Head
						{
							OFFSET 0.000000 1.667000 -0.240000
							CHANNELS 3 Zrotation Yrotation Xrotation
							End Site
							{
								OFFSET 0.000000 0.000000 0.000000
							}
						}
					}
				}
				JOINT LeftShoulder
				{
					OFFSET 0.000000 0.000000 0.000000
					CHANNELS 3 Zrotation Yrotation Xrotation
					JOINT LeftArm
					{
						OFFSET 2.700000 1.550000 -0.730000
						CHANNELS 3 Zrotation Yrotation Xrotation
						JOINT LeftForeArm
						{
							OFFSET 5.450000 0.000000 0.000000
							CHANNELS 3 Zrotation Yrotation Xrotation
							JOINT LeftHand
							{
								OFFSET 3.450000 0.000000 0.000000
								CHANNELS 3 Zrotation Yrotation Xrotation
								JOINT LeftHandIndex1
								{
									OFFSET 0.750000 0.000000 0.000000
									CHANNELS 3 Zrotation Yrotation Xrotation
									End Site
									{
										OFFSET 0.000000 0.000000 0.000000
									}
								}
							}
						}
					}
				}
				JOINT RightShoulder
				{
					OFFSET 0.000000 0.000000 0.000000
					CHANNELS 3 Zrotation Yrotation Xrotation
					JOINT RightArm
					{
						OFFSET -2.700000 1.550000 -0.730000
						CHANNELS 3 Zrotation Yrotation Xrotation
						JOINT RightForeArm
						{
							OFFSET -5.450000 0.000000 0.000000
							CHANNELS 3 Zrotation Yrotation Xrotation
							JOINT RightHand
							{
								OFFSET -3.450000 0.000000 0.000000
								CHANNELS 3 Zrotation Yrotation Xrotation
								JOINT RightHandIndex1
								{
									OFFSET -0.750000 0.000000 0.000000
									CHANNELS 3 Zrotation Yrotation Xrotation
									End Site
									{
										OFFSET 0.000000 0.000000 0.000000
									}
								}
							}
						}
					}
				}
			}
		}
	}
}
MOTION
Frames: 14
Frame Time: 0.016667
-0.354890 13.617400 -0.993310 -21.939748 17.793404 18.575377 -16.729116 11.417931 7.388429 -14.518713 -27.943468 -39.623330 30.624813 -9.874277 80.831290 2.281791 14.289309 0.089237 0.505880 0.174030 0.713420 17.662772 -7.974853 0.153691 -29.813501 -5.557625 -14.763523 5.813262 -14.693293 41.323621 -0.930951 -7.409519 1.714533 -0.056180 0.098700 0.342220 -0.492589 -7.175506 -9.010026 -38.969644 15.559319 36.829371 13.463028 4.789429 17.334301 4.931146 6.038909 -17.441568 10.712996 7.035294 30.269566 -4.022580 13.772800 -22.003710 -2.736380 -37.501860 12.893929 -9.128027 -19.875144 3.414483 3.153492 1.105758 -0.409405 -3.963444 2.573149 0.624770 0.022940 0.256470 0.152630 -7.959400 40.892510 3.428865 -41.046107 43.841860 -26.975740 -74.332065 52.517763 -31.577877 2.255712 -0.824333 -0.078930 0.110930 -0.217490 -0.212770 
-0.539600 13.641540 -0.961830 -26.118070 26.778034 25.721071 -16.978481 9.377625 8.623064 37.736048 -19.019991 -76.367424 -6.782571 30.215249 87.379015 2.489062 18.258590 -1.073039 0.675540 0.390630 0.764100 17.848184 -6.188553 0.959805 -26.517332 -6.584793 -27.135365 16.544280 -22.729905 45.249268 -1.345684 -9.416295 1.033571 0.248020 0.219980 0.323120 -0.291171 -6.812097 -10.011922 -33.543432 7.330576 33.118551 15.630601 -0.215842 16.684223 4.927173 6.226935 -16.294406 10.745612 9.411771 26.358270 -2.003130 14.337700 -17.239830 -3.451111 -33.231039 10.488663 -13.613802 -20.785610 4.112089 4.689665 -0.509240 -0.642885 -4.136254 2.699075 0.506630 0.189220 0.116940 0.199820 -6.952888 35.332999 4.618580 -49.896792 47.859949 -31.149447 -80.083801 49.954692 -33.306055 1.994631 -0.963701 -0.169470 0.197610 -0.235290 -0.246750 
-0.582450 13.258090 -1.037790 -44.597618 25.205073 18.800750 -16.569707 7.012056 9.828500 72.862487 7.952307 -76.425517 -30.969028 54.919000 77.135395 2.859725 19.151296 -1.091626 0.823910 0.556670 0.714210 18.445213 -5.835360 1.899641 -18.300038 -0.769774 -37.034570 21.263115 -28.040146 52.171439 -1.822192 -11.306322 0.534909 0.502190 0.456780 0.329120 -1.440152 -2.959963 -10.998154 -6.603861 -4.245796 30.361743 0.283071 -0.018081 16.826817 8.357529 0.822097 -13.428419 1.873635 11.963881 23.455778 1.545610 11.380160 -12.362130 -6.877661 -28.729747 9.436728 -17.356141 -19.295979 3.956221 7.366584 -2.421934 -1.125260 -4.250550 2.892422 0.358940 0.344940 -0.065960 0.306600 -8.762497 33.578773 4.424922 -55.758197 49.295202 -34.323699 -83.856681 47.058101 -34.078272 1.943380 -1.245237 -0.233500 0.342210 -0.212290 -0.181500 
-0.602220 13.044530 -0.983090 -49.887550 21.463769 17.955931 -16.247627 6.109591 9.487267 82.499400 16.759052 -74.881329 -20.516654 58.432101 89.340041 3.132946 20.744355 -1.404448 1.006680 0.816930 0.647120 18.817944 -5.461861 2.942851 -21.349866 -0.026838 -45.454473 26.249336 -33.689510 55.247715 -2.181009 -12.843285 0.113689 0.783830 0.643030 0.342790 -2.325299 -1.426163 -11.275031 1.341165 -6.669850 24.588878 -3.987815 -0.168968 18.160682 9.218925 -1.908218 -12.448390 -2.311108 13.732990 21.363835 4.796480 9.339830 -9.543900 -6.864593 -23.566121 6.608073 -22.559843 -20.392416 4.675433 10.093050 -4.990257 -1.702379 -4.362316 3.033180 0.211220 0.474410 -0.194950 0.435840 -9.835655 29.762327 6.727681 -65.452521 47.840722 -39.558473 -87.632295 41.804232 -32.430209 1.895660 -1.503562 -0.252960 0.457840 -0.220620 -0.096460 
-0.668440 12.923830 -0.843680 -53.542154 19.394666 16.076637 -16.101343 6.127875 9.036322 94.532073 23.361393 -67.631392 -26.854292 63.783465 84.148884 3.036608 19.804141 -1.138970 1.065990 0.923980 0.607670 18.914085 -5.499902 3.311902 -21.855005 0.540898 -47.827569 29.601871 -35.117497 53.463511 -2.220408 -12.962976 0.108133 0.876330 0.749430 0.365600 -2.685829 -0.994068 -11.210850 4.674868 -7.365566 21.881154 -4.404104 -0.388857 18.634089 9.467853 -2.985649 -12.245403 -4.055938 15.025090 20.646846 5.493840 9.618600 -7.633080 -7.864726 -19.415086 4.414738 -25.615445 -21.128855 5.502048 10.232818 -4.780111 -1.737342 -4.455686 3.085023 0.105320 0.560210 -0.248950 0.511970 -9.098930 26.008465 8.990450 -75.159142 46.279188 -44.987264 -89.030467 37.601305 -28.717152 1.910073 -1.534963 -0.236830 0.494400 -0.244500 -0.034310 
-0.671550 12.870720 -0.666690 -54.666344 8.499097 10.436452 -16.304126 6.599933 8.749504 109.436265 28.229940 -43.787373 -71.614713 67.542904 43.998408 1.404524 12.277173 0.648934 0.995710 0.829880 0.621550 18.688989 -5.370197 3.457256 -23.571292 5.494770 -45.785433 30.195918 -32.537311 53.072251 -2.153789 -12.622494 0.218615 0.778660 0.702880 0.350930 -2.391843 -1.154158 -11.067427 1.461137 -2.974900 24.478508 -3.747161 3.474282 20.147026 10.062906 -4.847301 -12.552998 -6.759151 16.079268 22.528306 5.276590 10.902780 -8.584410 -9.073329 -17.657833 3.921034 -26.895312 -19.603100 4.822264 10.262779 -4.166901 -1.694632 -4.429166 3.006175 0.176650 0.510790 -0.204850 0.447210 -8.855701 27.560142 9.890650 -79.609046 44.483930 -46.956601 -88.151342 35.292772 -25.118320 1.990662 -1.366424 -0.239200 0.492440 -0.205840 -0.064980 
-0.628600 12.796960 -0.531960 -53.601903 0.324631 4.683200 -16.412096 7.407634 7.776107 122.543213 24.160710 -23.436967 -112.021303 45.132291 10.661430 1.479397 11.937977 0.750829 0.905870 0.722070 0.608250 18.463075 -5.257337 4.148486 -28.891937 9.103141 -46.440697 34.249482 -34.511234 54.930924 -2.377455 -13.227765 0.107991 0.670630 0.664160 0.325600 -2.173130 -1.794913 -10.774594 -1.858443 0.583951 28.058681 -3.208327 6.750732 20.787947 10.541142 -5.966540 -12.973268 -8.477509 16.326864 24.104722 4.910070 11.722180 -9.650520 -12.156557 -17.823388 4.361698 -25.410238 -17.299123 4.175113 8.687923 -1.888600 -1.370090 -4.389967 2.897070 0.263380 0.453630 -0.152210 0.402390 -6.940354 30.107481 9.764426 -81.948871 42.172889 -45.686347 -88.390326 35.826855 -23.733671 2.026389 -1.213233 -0.256230 0.507040 -0.171280 -0.085280 
-0.548550 12.761400 -0.421690 -50.077399 -5.353958 -2.297833 -16.545786 7.587099 7.518556 124.419123 22.802609 -21.486217 -108.625601 39.901323 12.667897 1.542874 11.831422 0.705838 0.907010 0.699250 0.627730 18.323118 -4.843228 4.579481 -36.042958 11.153280 -46.478549 40.190126 -38.333782 56.533067 -2.669960 -13.955025 -0.095246 0.586960 0.491210 0.363190 -1.966237 -2.506350 -10.812464 -6.486798 3.775778 33.473094 -4.019557 10.023395 20.908063 10.949335 -6.091918 -13.576569 -8.623982 16.331302 26.037737 5.830250 12.333320 -10.091520 -13.872730 -19.594109 5.906417 -22.523035 -14.731100 3.245912 7.256879 -1.161209 -1.201727 -4.228490 3.020869 0.332670 0.334200 -0.056240 0.351310 -6.703691 33.489411 8.908659 -81.104543 40.739561 -44.409067 -88.071676 36.615784 -23.818227 2.129917 -1.251495 -0.167120 0.336320 -0.193150 -0.106110 
-0.466260 12.753260 -0.353730 -45.753575 -8.780608 -7.808645 -16.729127 6.992652 8.039881 119.032138 28.928367 -31.532780 -79.556067 56.850444 37.678846 1.380201 12.107953 0.552095 0.929240 0.688620 0.689210 18.295759 -4.154040 4.624590 -41.107511 12.133144 -47.846437 43.530243 -40.051341 56.919346 -2.776934 -14.161633 -0.143364 0.603310 0.420760 0.321880 -1.865053 -2.724355 -11.159462 -10.652055 6.593038 37.260644 -4.533536 12.614327 20.964536 10.647493 -6.643149 -13.499439 -9.510953 16.759292 26.980968 6.477120 12.540970 -11.979360 -12.881051 -20.471950 6.676738 -22.809264 -14.458166 3.376960 6.394263 -0.982774 -1.239037 -4.164439 2.947310 0.442450 0.268140 -0.026450 0.303730 -7.724323 35.963370 7.713795 -78.555627 40.791107 -44.489906 -88.488465 38.317652 -25.934046 2.114712 -1.209266 -0.218190 0.363940 -0.177720 -0.174710 
-0.481910 12.652300 -0.236080 -44.726581 -13.426066 -11.296926 -16.686915 6.480814 8.192953 115.125468 33.567012 -39.868697 -39.183881 58.143713 72.463570 2.264250 16.135362 -0.447914 0.870900 0.620020 0.652410 18.373842 -3.961139 4.947869 -42.451652 14.868504 -52.177601 48.451832 -40.608583 54.688618 -2.855169 -14.065965 -0.047857 0.544090 0.468710 0.291100 -2.303532 -2.072812 -11.473077 -8.445271 7.052952 39.674604 -6.912189 14.456097 18.364602 10.277039 -7.395577 -13.344255 -11.009721 16.728613 28.368349 7.963620 12.037680 -12.549070 -11.160583 -18.725049 6.387042 -27.503210 -14.419558 3.661156 7.030541 -1.271961 -1.251143 -4.129764 2.847884 0.507130 0.241360 -0.005540 0.318600 -9.234067 34.842431 6.915413 -79.075172 43.121556 -48.461968 -88.641354 39.546602 -27.942068 2.166149 -1.046359 -0.259680 0.451550 -0.154790 -0.158250 
-0.524080 12.554840 -0.115880 -43.854134 -17.656544 -13.011796 -16.916340 5.003688 9.520468 98.672005 41.771671 -57.829861 3.446890 38.996129 104.477838 2.641693 18.027844 -0.910110 0.897570 0.679170 0.595480 18.441521 -3.216744 4.772377 -41.334023 17.316861 -55.732783 50.336003 -40.668372 54.448399 -2.924373 -14.252385 -0.062544 0.565310 0.495540 0.321070 -2.534145 -1.038522 -12.153603 -6.002679 7.612444 39.830491 -8.864665 16.001098 17.117650 10.516436 -7.520149 -13.091598 -11.047296 16.083294 29.081307 8.891400 10.898630 -10.463290 -9.787805 -16.977596 5.773501 -30.476118 -15.221216 4.477717 7.049480 -0.303045 -1.097546 -4.166231 2.949072 0.418480 0.272590 -0.032360 0.362040 -11.447974 33.713335 6.251892 -77.820937 44.727313 -50.084956 -89.456471 38.791577 -29.513182 2.236888 -1.162057 -0.197560 0.398200 -0.177760 -0.098260 
-0.530700 12.439440 0.010780 -43.807238 -18.716222 -15.716556 -16.960933 4.327494 10.184271 70.110862 39.336343 -86.941563 29.788611 9.573146 104.913581 1.927015 14.879362 -0.154130 0.841160 0.610180 0.532550 18.504122 -2.994307 4.588553 -41.402735 17.366781 -54.949168 59.049579 -41.315101 48.303673 -2.840758 -13.728579 0.090198 0.532480 0.539610 0.299720 -2.757010 -0.387184 -12.564114 -2.201098 6.670535 41.419645 -10.131119 16.370402 16.366835 10.751676 -7.566968 -12.784779 -11.145778 14.588071 30.809763 9.240560 8.696370 -8.120010 -7.950313 -17.649290 6.476972 -34.188514 -16.597331 6.166073 6.211603 2.932542 -0.705518 -4.207617 2.969529 0.366550 0.286640 -0.088510 0.371690 -14.036576 34.623350 4.548509 -71.696367 45.966932 -46.973010 -90.335268 39.256138 -32.190760 2.282677 -1.290097 -0.208460 0.394020 -0.163130 -0.067050 
-0.494900 12.315540 0.136190 -43.568638 -18.668168 -19.373792 -16.607174 5.082460 9.367111 41.485995 20.260371 -107.582669 50.369939 -12.579834 83.047182 2.146178 15.534581 -0.342701 0.753070 0.492630 0.510060 18.614667 -3.791593 4.872959 -43.807783 16.147312 -51.676365 76.405880 -39.536431 35.145879 -2.658764 -12.454928 0.410053 0.416250 0.488110 0.345080 -3.244682 0.057604 -12.241194 2.464030 4.889768 44.645912 -13.818890 15.468113 14.411700 11.719040 -6.954201 -12.659766 -10.138171 13.771732 33.615862 7.932820 8.439170 -7.642180 -9.481709 -18.121809 7.606060 -34.377057 -13.744251 4.429117 8.809624 -0.792613 -0.975387 -4.119760 3.028439 0.389780 0.265400 -0.052920 0.317090 -14.767076 33.976398 2.111835 -66.928083 48.605528 -46.252284 -89.708927 41.247200 -34.883986 2.363277 -1.279718 -0.171510 0.304440 -0.126040 -0.073970 
-0.482710 12.184480 0.236200 -43.296368 -13.977054 -20.744645 -16.295005 5.869549 8.461273 19.485052 -4.472866 -111.020086 64.193942 -15.969145 56.703499 1.740062 14.617238 -0.233968 0.652080 0.356390 0.457520 18.695844 -4.382704 5.299823 -47.452148 12.622222 -46.133385 92.437965 -29.278540 19.157517 -2.317679 -10.846410 0.809454 0.359760 0.481010 0.345060 -3.406299 -0.081256 -11.853220 5.262218 3.572586 44.227550 -14.357639 12.886543 14.155802 12.057887 -6.298010 -11.948881 -9.008507 13.264897 36.291670 6.914570 7.341870 -7.179880 -9.648045 -20.070948 9.206079 -35.850070 -12.673939 3.911594 10.950066 -2.932383 -1.220380 -4.098813 3.050347 0.417790 0.270530 -0.089580 0.240160 -14.984109 34.297518 -0.554584 -57.224933 51.610066 -41.179214 -87.950085 44.561764 -37.440825 2.342440 -1.234534 -0.213380 0.275370 -0.033910 -0.108750 
